<svg width="100" height="100" viewBox="0 0 100 100" fill="none" xmlns="http://www.w3.org/2000/svg">
    <rect width="100" height="100" rx="24" fill="white" />
    <path d="M33.6979 53.048H26.7015L15 27H23.142L30.2611 43.872L37.4211 27H45.4403L33.6979 53.048Z"
        fill="black" />
    <path d="M56.1445 52.9H48.7799V27H56.1445V52.9Z" fill="black" />
    <path
        d="M69.1661 52.9H61.8016V27H74.5668C77.7854 27 80.3221 27.7523 82.1769 29.257C84.059 30.7617 85 32.7103 85 35.103C85 37.4957 84.059 39.4567 82.1769 40.986C80.3221 42.4906 77.7854 43.243 74.5668 43.243H69.1661V52.9ZM69.1661 32.624V37.767H74.0349C75.0987 37.767 75.9443 37.545 76.5716 37.101C77.2263 36.6323 77.5536 35.991 77.5536 35.177C77.5536 34.363 77.2399 33.734 76.6126 33.29C75.9852 32.846 75.126 32.624 74.0349 32.624H69.1661Z"
        fill="black" />
    <path
        d="M15 57.2124H18.8695C20.1753 57.2124 21.1546 57.5548 21.8075 58.2396C22.4603 58.9245 22.7868 59.9284 22.7868 61.2513V62.8622C22.7868 64.1852 22.4603 65.1891 21.8075 65.8739C21.1546 66.5588 20.1753 66.9012 18.8695 66.9012H17.6274V73.5549H15V57.2124ZM18.8695 64.5665C19.2994 64.5665 19.6179 64.4498 19.8249 64.2163C20.0479 63.9829 20.1593 63.586 20.1593 63.0257V61.0879C20.1593 60.5276 20.0479 60.1307 19.8249 59.8972C19.6179 59.6638 19.2994 59.547 18.8695 59.547H17.6274V64.5665H18.8695Z"
        fill="black" />
    <path d="M24.2138 57.2124H26.8412V71.2203H31.1645V73.5549H24.2138V57.2124Z" fill="black" />
    <path
        d="M34.5481 57.2124H38.1071L40.8301 73.5549H38.2026L37.7249 70.3098V70.3565H34.7392L34.2615 73.5549H31.8251L34.5481 57.2124ZM37.4144 68.1385L36.244 60.0607H36.1962L35.0497 68.1385H37.4144Z"
        fill="black" />
    <path d="M43.0627 59.547H40.3158V57.2124H48.437V59.547H45.6901V73.5549H43.0627V59.547Z"
        fill="black" />
    <path d="M49.7091 57.2124H52.3365V73.5549H49.7091V57.2124Z" fill="black" />
    <path
        d="M54.3043 57.2124H57.6005L60.1563 66.9946H60.2041V57.2124H62.5449V73.5549H59.8458L56.6929 61.6249H56.6451V73.5549H54.3043V57.2124Z"
        fill="black" />
    <path
        d="M68.3195 73.7884C67.0456 73.7884 66.0742 73.4382 65.4054 72.7378C64.7366 72.0218 64.4022 71.0024 64.4022 69.6794V57.2124H67.0297V69.8662C67.0297 70.4265 67.1411 70.8312 67.3641 71.0802C67.6029 71.3292 67.9373 71.4537 68.3673 71.4537C68.7972 71.4537 69.1237 71.3292 69.3466 71.0802C69.5854 70.8312 69.7049 70.4265 69.7049 69.8662V57.2124H72.2368V69.6794C72.2368 71.0024 71.9024 72.0218 71.2336 72.7378C70.5648 73.4382 69.5934 73.7884 68.3195 73.7884Z"
        fill="black" />
    <path
        d="M74.1081 57.2124H77.8581L79.5301 68.909H79.5779L81.2499 57.2124H85V73.5549H82.5159V61.1813H82.4681L80.5572 73.5549H78.3597L76.4489 61.1813H76.4011V73.5549H74.1081V57.2124Z"
        fill="black" />
</svg>
